<?xml version="1.0" encoding="UTF-8"?>
<svg width="40" height="40" viewBox="0 0 40 40" fill="none" xmlns="http://www.w3.org/2000/svg">
  <!-- BBQ Grill Base -->
  <ellipse cx="20" cy="32" rx="16" ry="3" fill="#1a1a1a"/>
  
  <!-- Grill Bowl -->
  <path d="M6 20 C6 26, 12 30, 20 30 C28 30, 34 26, 34 20 L32 20 C32 24, 27 27, 20 27 C13 27, 8 24, 8 20 Z" fill="#1a1a1a"/>
  
  <!-- Grill Grates -->
  <rect x="8" y="18" width="24" height="1" fill="#1a1a1a"/>
  <rect x="8" y="20" width="24" height="1" fill="#1a1a1a"/>
  <rect x="8" y="22" width="24" height="1" fill="#1a1a1a"/>
  
  <!-- Grill Legs -->
  <rect x="10" y="28" width="2" height="8" fill="#1a1a1a"/>
  <rect x="28" y="28" width="2" height="8" fill="#1a1a1a"/>
  <rect x="19" y="28" width="2" height="8" fill="#1a1a1a"/>
  
  <!-- Grill Handle -->
  <rect x="34" y="19" width="4" height="2" rx="1" fill="#1a1a1a"/>
  
  <!-- Lid Handle -->
  <ellipse cx="20" cy="12" rx="3" ry="1.5" fill="#1a1a1a"/>
  
  <!-- Grill Lid -->
  <path d="M8 16 C8 10, 13 6, 20 6 C27 6, 32 10, 32 16 L30 16 C30 12, 25.5 9, 20 9 C14.5 9, 10 12, 10 16 Z" fill="#1a1a1a"/>
  
  <!-- Smoke -->
  <path d="M16 4 Q16 2, 18 2 Q18 4, 16 4" fill="#1a1a1a" opacity="0.6"/>
  <path d="M20 3 Q20 1, 22 1 Q22 3, 20 3" fill="#1a1a1a" opacity="0.6"/>
  <path d="M24 4 Q24 2, 26 2 Q26 4, 24 4" fill="#1a1a1a" opacity="0.6"/>
</svg>